<svg xmlns="http://www.w3.org/2000/svg" width="72.3" height="34.3" viewBox="0 0 72.3 34.3"><path d="M25.9 3.8a.5.5 0 00.7 0l.4-.5c.5-1.1-.4-1.2-.8-.8a1.8 1.8 0 00-.5.7.5.5 0 00.2.6z" fill="#231f20"/><path d="M55.1 11.2h-.5l-.4.3-1.2.5-2.1.6a2.4 2.4 0 01-1.5-.2 4.3 4.3 0 01-1.3-1 7.8 7.8 0 002.3-.4 5.5 5.5 0 002-1.1l.3-.4.2-.5a.7.7 0 000-.4l-.3-.4a1.7 1.7 0 00-1-.2l-1.1.3-1 .6-.9.6-.7.4-.6.4L49 6.6l.7-.6.7-.6 1.1-1.1 1.1-1.1.4-.4.4-.5.3-.5a1.5 1.5 0 00.2-.5.6.6 0 00-.1-.5l-.5-.2h-.9a3.2 3.2 0 00-1.1.8l-.8 1.1-1.1 1.9-.9 1.8-.5.5L44.9 9l-2.7 1.7-1.3.7-1.3.6-.4.2-.6.2-.7.2h-.5l.2-.4.3-.4.3-.4.2-.2.7-.8.6-.8a1.3 1.3 0 00.2-.7.8.8 0 00-.2-.5l-.5-.3h-.7a9.5 9.5 0 00-2.1.9l-2 1.2-.8.4-.8.4.4-.9.3-.5a.6.6 0 00.1-.6q-.2-.4-.9-.2l-1.6.6-1.7.9-.8.5-.7.3-.9.5-.6.3-1.2.4h-1.4a1 1 0 01-.1-1l.3-1 .3-.6a1.5 1.5 0 00.3-.6q.1-.5-.2-.6h-.7l-.9.3-.6.3-3.1 1.9h-.3l-1.8.7-1.8.5h-1.3a2.3 2.3 0 010-.8 4.7 4.7 0 01.2-.9l.3-.9.3-.8a29.9 29.9 0 003.2-2.9 24.4 24.4 0 002.7-3.3l.4-.5.5-.6.3-.6a1 1 0 000-.7.6.6 0 00-.7-.4l-.8.3A4.3 4.3 0 0019 1.3l-1 1.3-1 1.5-1 1.4-1 1.6-1 1.7-1.7 1.2-1.8 1c-.3.1-.3.3-.2.4a.5.5 0 00.5.2l2.6-1.6a9.8 9.8 0 00-.5 1.5 3.9 3.9 0 00-.1.7 1.8 1.8 0 00.1.7 1 1 0 00.4.5h.7l1-.3 1-.4 3.6-1.4.5-.3.5-.2 1.3-.6 1.4-.5-.3 1.2a5.1 5.1 0 00-.1 1.2 1.7 1.7 0 00.3.9.8.8 0 00.9.3l1.4-.5 1.4-.7.5-.2.8-.4.4-.3.3-.2.4-.3.9-.4.9-.4.5-.2.7-.2v.9l-.2.4-.3.6a1 1 0 00-.4.5.6.6 0 000 .4l.2.2h.4a7.2 7.2 0 011.7-1.3l1.8-1 1.6-.7 1.7-.5a2.8 2.8 0 01-.6.9l-.6.7-.4.4-.4.5-.3.5a1 1 0 00-.1.6q0 .6.4.8h.9l1.1-.4.8-.4.8-.4 1.5-.8h.1l2-1 1.3-.9 1.2-.9 1.2-.9-.3.5-.8 1.4-.8 1.4-1 1.4-.2.3a.4.4 0 000 .4q.2.5.4.4l.5-.3.3-.3.2-.3.5-.6.6-.6.6.7.6.7a3 3 0 001.3.8H51l1.4-.4 1.4-.7.9-.5h.5a.3.3 0 00.2-.3.4.4 0 00-.3-.5zm-4.1-8A5 5 0 0152.3 2l-.7 1-.8.9-.9.9A10.3 10.3 0 0151 3.2zM16.1 6.7l.6-1L17.9 4l1.3-1.5.6-.6.8-.6-.2.5-.2.4-1 1.5a24.5 24.5 0 01-2.6 3l-.6.5-.6.5zm32.2 3.8l.7-.5.8-.4.7-.3h1.1a4.6 4.6 0 01-1.5 1.1 4.7 4.7 0 01-1.8.4H48zM4.1 18.9H0V34h11.6v-3.3H4.1V18.9zm11.5 0h4.1v15.12h-4.1zm16 10.1h-.1l-3.8-10.1h-4.2L29.3 34h4.3l5.8-15.1h-4.1L31.6 29zm15.5-.9H53v-3.3h-5.9v-2.5h7.7v-3.4H43.1V34H55v-3.3h-7.9v-2.6zm20.6-3.3l-2.9-.5c-.9-.2-1.5-.4-1.5-1.1s.8-1.4 2.1-1.4 2.7.7 2.8 2.3H72c-.1-3.4-2.3-5.4-6.5-5.4s-6.2 1.8-6.2 4.9 1.7 4 4.2 4.5l2.8.5c1.2.2 2 .4 2 1.2s-.9 1.3-2.3 1.3-3.1-.6-3.3-2.5h-3.8c0 3.6 2.9 5.6 7 5.6s6.3-1.6 6.3-4.8-1.4-4-4.5-4.6zM57.6 10.1h-1.2c-.4 0-.3.4-.1.5h1.4c.3 0 .8 0 .8-.4s-.6-.1-.9-.1z" fill="#231f20"/></svg>